# xmcd CD database file
#
# Track frame offsets:
#	150
#	21225
#	38925
#	54825
#	74325
#	92775
#	111900
#	130500
#	149625
#	168750
#	190500
#	210825
#	230550
#	250050
#	270075
#
# Disc length: 3849 seconds
#
# Revision: 7
# Processed by: cddbd v1.5.2PL0 Copyright (c) Steve Scherf et al.
# Submitted via: CDex 1.70beta2
#
DISCID=c20f070f
DTITLE=彭羚 - 完全因你精選
DYEAR=1996
DGENRE=Pop
TTITLE0=隔世情 (無線電視劇《聊齋》主題曲)
TTITLE1=完全因你 (電影《和平飯店》主題曲)
TTITLE2=小玩意
TTITLE3=如夢初醒
TTITLE4=彷如隔世
TTITLE5=未完的小說 (商業二台叱吒903蘭茜夫人劇場《戀愛1/2》主題曲)
TTITLE6=出色女子 (無線電視劇《廉正英雌》主題曲)
TTITLE7=仍然是最愛你 (無線電視劇《再見亦是老婆》主題曲)
TTITLE8=喜歡最喜歡你
TTITLE9=有著你......多麼美
TTITLE10=如果得不到愛情
TTITLE11=不許眼兒再下雨
TTITLE12=等得太久 (無線電視劇《廉正英雌》插曲)
TTITLE13=戀火
TTITLE14=等你到白頭 (無線電視劇《白髮魔女傳》主題曲) - 彭羚、巫啟賢 合唱
EXTD=YEAR: 1996
EXTT0=
EXTT1=
EXTT2=
EXTT3=
EXTT4=
EXTT5=
EXTT6=
EXTT7=
EXTT8=
EXTT9=
EXTT10=
EXTT11=
EXTT12=
EXTT13=
EXTT14=
PLAYORDER=
